<svg viewBox="0 0 726 187" xmlns="http://www.w3.org/2000/svg" fill-rule="evenodd" clip-rule="evenodd" stroke-linejoin="round" stroke-miterlimit="1.41">
  <g fill="#1a1a1a" fill-rule="nonzero">
    <path d="M65.92 65.97c8.3-5 12.96-19.7 1.55-21.25-3.12 0-14.53 12.96-14.53 19.35 0 6.58 3.12 6.58 12.98 1.9m52.88 29.78c-5.02 8.3-15.2 22.25-49.43 22.25-34.57 0-37.68-29.2-39.4-32.66-3.13-3.1-4.67-7.96-1.58-11.4 1.56-3.3 3.3-6.4 4.84-16.26C36.7 47.83 46.2 28.3 64.34 28.3c11.42 0 29.4 11.4 29.4 27.83 0 14.52-17.97 29.2-22.8 30.76-6.6 3.46-14.88 3.46-12.98 6.74 1.57 1.55 4.66 5.02 16.26 5.02 11.4 0 24.33-6 27.9-10.52 2.9-3.63 7.9-13 4.93-33.14-1.36-9.26-17.43-33.38-37.33-34.15C42.06 19.77 26.46 34.68 21.5 53.5c-8.1 30.55 7 58.53 7.33 58.55.33.02-28.4 2.05-28.83-56.35C-.22 26.35 28.26 0 64.75 0 111 0 125.9 44.33 128.12 53.78c4.87 20.64-8.45 40.24-9.32 41.97M259.53 104.5c-11.58 0-18.15-17.8-19.7-31.1-1.56-14.53-6.4-6.4-8.3-3.12-3.1 3.1-4.67 6.57-11.4 19.53-4.85 13.15-11.42 19.72-16.26 19.72-6.57 0-14.52-3.46-17.97-13.3-4.85-9.52-3.3-12.98-9.86 1.9-6.4 16.24-14.5 14.5-17.8 14.5-3.46 0-5.02-1.55-9.86-8.12-5-4.83-12.96-42.52-14.86-48.92-1.56-5-4.67-12.96 8.3-12.96 9.85 0 16.4 17.8 19.7 27.66 1.55 9.68 3.1 3.1 6.57-3.3 4.83-8.1 12.95-17.96 21.25-17.96 7.95 0 12.96 11.4 14.52 17.97 1.73 6.4 1.73 8.3 4.84 1.55 3.47-5.02 18.16-29.38 36.14-29.38 17.8 0 16.25 29.38 17.8 36.13 0 7.94 8.3 29.2-3.1 29.2M327.48 81.86c0-8.3-6.57-29.56-17.98-29.56-4.84 0-14.7 11.4-16.24 22.82v24.72h14.68c4.67-1.56 19.54-8.3 19.54-17.98m22.8 1.56c0 27.83-39.05 37.68-44.06 37.68-3.12 0-12.96-5.02-12.96 0-1.56 3.12 0 34.22 0 42.52 1.55 9.86 3.1 22.82-8.3 22.82s-12.97-11.4-14.53-22.82c-1.9-11.4-1.9-58.94 0-65.34 0-8.3 1.56-37.68 1.56-49.1 0-13.13 6.38-18.14 12.96-18.14 3.28 0 4.83 3.46 8.3 5 4.83 1.74 1.55-6.55 14.68-6.55 12.97 0 42.35 24.7 42.35 53.92M389.04 81.17c-8.13 11.4-11.4 32.67-22.82 32.67-12.96 0-12.96-32.67-11.4-40.97 1.55-8.13 4.84-45.64 4.84-45.64v-11.4c0-9.86 5-14.87 11.4-14.87 16.42 0 8.13 44.08 6.58 53.94-1.56 9.84 1.55 6.56 4.83 1.55 1.56-3.1 12.96-12.97 22.82-12.97 9.84 0 19.7 16.43 22.8 27.83 1.9 11.42 5.02 32.68-6.4 32.68-11.4 0-11.4-16.42-14.85-31.1-3.12-12.97-11.42-1.57-17.8 8.3M475.6 41.24c-11.42 0-23 29.2-23 37.5 0 6.57 1.73 16.43 4.84 16.43 11.42 0 27.83-40.97 29.56-45.98 1.56-4.85 1.56-7.96-11.4-7.96m55.48 48.92c0 3.1-1.55 12.96-11.4 12.96-9.86 0-19.72-7.95-21.27-12.96-3.27-3.3-4.82-8.3-6.4-3.3-3.44 3.3-13.3 29.57-34.56 29.57s-24.37-21.26-24.37-26.27c0-3.3 1.56-60.33 37.68-68.63 7.95-1.55 11.42 1.73 16.25 0 5 0 8.13-3.1 12.96-3.1 5 0 11.4 3.1 11.4 16.24 0 12.96 1.92 45.64 9.86 45.64 9.86 0 9.86 6.57 9.86 9.86"/>
    <path d="M599.32 60.77c-3.28 5-22.3-1.04-29.56-1.55-2.6-.18-6.4 1.03-6.74 3.62-1.55 15.2-3.1 30.26-4.67 45.47 0 14.53-6.4 14.53-11.4 14.53-6.4 0-7.97-4.67-7.97-9.68-1.9-4.84 1.56-47.37 1.56-52.38 0-4.84 0-3.3-3.45-3.3-4.86 1.75-4.68 2.95-11.42 2.95-6.4 0-9.85-4.32-9.85-12.62 0-6.73 23.15-13.13 26.27-13.13 3.3 0 3.3-1.56 3.3-8.13 0-6.4 5-18.14 14.5-18.14 8.3 0 6.75 19.53 6.75 26.27 0 6.4 3.8 3.8 14.52 8.3 11.4 4.83 21.26 12.96 18.15 17.8M636.42 23.95c0 5.02-5.02 9.86-9.86 9.86-6.57 0-9.85-4.83-9.85-9.85 0-4.67 3.3-7.95 9.86-7.95 4.84 0 9.86 3.28 9.86 7.95m-13.3 55.84c0 4.82 6.75 32.66-6.4 32.66-11.4 0-14.86-24.72-14.86-42.53 0-17.97 8.3-24.72 13.3-24.72 14.7 0 7.97 27.84 7.97 34.6M720.92 91.54c-8.13 6.57-24.38 24.37-53.94 24.37-29.4 0-39.23-27.64-39.23-45.62 0-16.25 17.98-45.64 37.7-45.64 19.7 0 27.64 11.4 27.64 16.42 0 4.67-4.86 4.67-7.96 3.1-3.46-1.54-5-3.1-16.42-3.1-9.86 0-19.7 20.92-19.7 34.23 0 12.95 6.56 21.25 22.8 21.25 16.42 0 34.58-11.4 44.08-13.3 9.86-1.56 13.3 0 5.02 8.3"/>
  </g>
</svg>
